# xmcd
#
# Track frame offsets:
#	150
#	18972
#	32090
#	42385
#	57434
#	75542
#	91817
#	110457
#	126151
#	135855
#	155673
#	170434
#	185855
#	199092
#	221738
#	238300
#	259495
#	273844
#	289658
#
# Disc length: 4262 seconds
#
# Revision: 1
# Processed by: cddbd v1.5.2PL0 Copyright (c) Steve Scherf et al.
# Submitted via: audiograbber 1.83.01
#
DISCID=1610a413
DTITLE=Cowboy Hits - Cool Songs for Tough Guy
DYEAR=1900
DGENRE=Country
TTITLE0=Tom Gillam - Diamonds in the Rough
TTITLE1=Doug Adkins and one More Ride - In Your Kiss
TTITLE2=Thom Pace - Yeh,Right
TTITLE3=Paul Delicato - Nowhere Bound
TTITLE4=Jackson Mackay
TTITLE5=Ricky Valance - I Say the Grace
TTITLE6=Jon Dean Foster - Let my Spirit Go Down
TTITLE7=Hermann Lammers Meyer - A Song for Sarah
TTITLE8=The Country Sisters - Good Golly Miss Molly
TTITLE9=The Dallahachie Boys - Somewhere Along the Way
TTITLE10=Paul Delicato - Ready To be Your Man
TTITLE11=Larry Butler - Goodbye come Hard for Me
TTITLE12=Tequila Sunrise - Love Reunited
TTITLE13=Doug Adkins and One More Ride - A Losin' Soul
TTITLE14=John Wayne - Angel Things
TTITLE15=Tom Gillam - Every Morning, Every Night, Every Day
TTITLE16=Jackson Mackay - Back to the Rodeo
TTITLE17=Hermann Lammers Meyer - I'll be Home Soon
TTITLE18=Thom Pace - Wear the Sun in Your Heart/Maybe
EXTD=
EXTT0=
EXTT1=
EXTT2=
EXTT3=
EXTT4=
EXTT5=
EXTT6=
EXTT7=
EXTT8=
EXTT9=
EXTT10=
EXTT11=
EXTT12=
EXTT13=
EXTT14=
EXTT15=
EXTT16=
EXTT17=
EXTT18=
PLAYORDER=
